<svg viewBox="0 0 70.46 80" width="64" height="64" fill="#FFFFFF" xmlns="http://www.w3.org/2000/svg" aria-labelledby="title"><title>Java Icon</title><path d="M13.46 54.93l3.47 2.48v5.22l8.61 7.1h19.17v-5.16H27.39l-4.17-3.44h24.11v-5.16H23.82l-2.74-1.95-1.5 2.1 1.5-2.1-2.1-1.49h28.35v-5.16h-27.1l-5.09-3.04v-.42l5.53-2.76-2.31-4.62-8.38 4.19v6.53l3.48 2.08v5.6zM52.47 60.41l3.65 3.65 11.19-11.18v-5.61l-4.99-4.99H54.3v5.16h5.88l1.97 1.96v1.34l-9.68 9.67z"></path><path d="M68.9 71.48l-10.57 3.36h-44.4l-8.3-2.64 8.68-2.75-1.56-4.92L0 68.58v7.25L13.13 80h46l11.33-3.6-1.56-4.92zM36.12 35.71l-9.5-9.5 14.63-14.62V0h-5.16v9.45L19.32 26.21l13.15 13.15 3.65-3.65z"></path><path d="M43.65 35.78l-3.4 3.41 3.65 3.65 7.05-7.06-9.6-9.6 8.6-8.61-3.65-3.64-12.25 12.25 9.6 9.6z"></path></svg>