<svg viewBox="0 0 80 80" width="64" height="64" fill="#FFFFFF" xmlns="http://www.w3.org/2000/svg" aria-labelledby="title"><title>Javascript Icon</title><path d="M0 0v80h80V0zm75.2 75.2H4.8V4.8h70.4z"></path><path data-name="<Path>" d="M62.34 63.7a6.26 6.26 0 0 1-1.95 1 9.19 9.19 0 0 1-9.83-3c-.2-.24-.39-.49-.57-.75l-3.86 2.24a11.78 11.78 0 0 0 3.62 3.63A13.9 13.9 0 0 0 56 68.9a16.17 16.17 0 0 0 6.86-.65A8.67 8.67 0 0 0 68 64.31a9.12 9.12 0 0 0 1-5.07 8.46 8.46 0 0 0-3.25-6.61 24.34 24.34 0 0 0-5.53-3.13l-1.11-.5c-1-.43-2-.88-3-1.38a9.48 9.48 0 0 1-2.14-1.48 4.69 4.69 0 0 1-1.25-4.42 4.44 4.44 0 0 1 3.18-3.3 6.5 6.5 0 0 1 3.41 0 6 6 0 0 1 3.48 2.48l3.58-2.3a8.92 8.92 0 0 0-4-3.36 12.64 12.64 0 0 0-7.86-.51 8.25 8.25 0 0 0-5.51 3.9 8.72 8.72 0 0 0-1.08 5.15 8.46 8.46 0 0 0 2.75 6 18.43 18.43 0 0 0 5.05 3.07l.94.42c1.35.6 2.75 1.22 4.11 1.88a8 8 0 0 1 2 1.45 4.66 4.66 0 0 1-.49 7.13zM24 68a12.84 12.84 0 0 0 9.26.33 7.43 7.43 0 0 0 5-5 13.89 13.89 0 0 0 .64-4.61V34.79h-4.8v23.84a14.68 14.68 0 0 1-.16 2.17 4.44 4.44 0 0 1-2.25 3.53 6 6 0 0 1-6.07-.25 6.74 6.74 0 0 1-2-2.2l-.14-.22L19.55 64A9.41 9.41 0 0 0 24 68z"></path></svg>