<?xml version="1.0" encoding="utf-8"?>
<!-- Generator: Adobe Illustrator 20.1.0, SVG Export Plug-In . SVG Version: 6.00 Build 0)  -->
<svg version="1.1" id="Layer_1" xmlns="http://www.w3.org/2000/svg" xmlns:xlink="http://www.w3.org/1999/xlink" x="0px" y="0px"
	 viewBox="0 0 64 64" style="enable-background:new 0 0 64 64;" xml:space="preserve">
<style type="text/css">
	.st0{fill:#FFFFFF;}
</style>
<title>Python Icon</title>
<path class="st0" d="M56.9,16.1h-9v-9L40.8,0H23.2l-7.1,7.1v9h-9L0,23.2v17.6l7.1,7.1h9v9l7.1,7.1h17.6l7.1-7.1v-9h9l7.1-7.1V23.2
	L56.9,16.1z M8.6,44.3l-5-5V24.7l5-5H32v-3.6H19.7V8.6l5-5h14.6l5,5v14.5l-7,7.1H25.2l-9.1,9.1v5L8.6,44.3z M60.4,39.3l-5,5H32v3.6
	h12.3v7.5l-5,5H24.7l-5-5V40.8l7-7h12.1l9.1-9.2v-4.9h7.5l5,5V39.3z"/>
<path class="st0" d="M24.2,7.8h3.6v4h-3.6V7.8z M36.2,52.1h3.6v4h-3.6V52.1z"/>
</svg>
